<svg width="1480.271" height="456.617" xmlns="http://www.w3.org/2000/svg">

 <g>
  <title>Layer 1</title>
  <circle id="svg_2" r="45.759" cy="94.158" cx="1413.462" fill="#119BCF"/>
  <path id="svg_3" d="m1418.201,163.624l0.43,3.901l-84.412,100.057l-0.164,-85.717l1.791,-83.154l82.355,64.913z" fill="#119BCF"/>
  <path stroke-width="23" stroke="#119BCF" id="svg_4" d="m1343.11164,264.95572l53.67061,78.49739l-51.16126,63.87389m128.152,-136.92091l-42.92781,-38.95743l-21.65409,-58.79868" stroke-linejoin="round" stroke-linecap="round" fill="none"/>
  <path id="svg_6" d="m1333.566,0.001l0,447.815" stroke-miterlimit="5" stroke-width="6" stroke="#119BCF" fill="none"/>
  <g id="svg_7">
   <g id="svg_8" fill="#636467">
    <path id="svg_9" d="m151.519,188.343c0,9.062 -1.572,17.593 -4.704,25.634c-3.138,8.025 -7.717,15.094 -13.746,21.174c-6.039,6.102 -13.437,10.877 -22.212,14.391c-8.777,3.516 -18.479,5.256 -29.09,5.256l-40.521,0l0,80.219l-41.246,0l0,-213.02l81.771,0c10.614,0 20.256,1.713 28.945,5.113c8.685,3.417 16.089,8.186 22.209,14.316c6.123,6.146 10.755,13.196 13.895,21.199c3.132,7.983 4.699,16.552 4.699,25.718zm-41.246,0c0,-5.662 -1.271,-10.714 -3.829,-15.194c-2.559,-4.484 -6.151,-7.938 -10.784,-10.383c-4.628,-2.44 -9.938,-3.649 -15.916,-3.649l-38.499,0l0,58.3l38.497,0c5.979,0 11.287,-1.199 15.916,-3.58c4.633,-2.384 8.227,-5.773 10.784,-10.164c2.557,-4.382 3.831,-9.485 3.831,-15.33zm224.605,40.172c0,11.777 -0.122,21.078 -0.367,27.906c-0.238,6.814 -1.035,13.813 -2.385,20.967c-1.353,7.154 -3.447,13.688 -6.295,19.574c-2.852,5.904 -6.828,11.435 -11.94,16.58c-15.536,15.486 -34.541,23.232 -57.014,23.232c-11.687,0 -22.169,-1.947 -31.483,-5.841c-9.308,-3.899 -17.871,-9.688 -25.684,-17.393c-6.565,-6.814 -11.313,-14.34 -14.26,-22.568c-2.939,-8.237 -4.75,-16.803 -5.431,-25.719c-0.676,-8.897 -1.01,-21.149 -1.01,-36.74c0,-15.583 0.334,-27.827 1.01,-36.738c0.682,-8.923 2.484,-17.484 5.431,-25.727c2.938,-8.223 7.688,-15.741 14.26,-22.572c7.813,-7.697 16.375,-13.485 25.684,-17.37c9.313,-3.901 19.798,-5.853 31.483,-5.853c22.474,0 41.482,7.746 57.014,23.221c6.468,6.726 11.244,14.227 14.329,22.503a93.555,93.555 0 0 1 5.637,25.797c0.68,8.908 1.021,21.153 1.021,36.741zm-41.242,0.073c0,-13.233 -0.321,-23.751 -0.939,-31.523c-0.63,-7.785 -1.641,-13.62 -3.039,-17.521c-1.399,-3.887 -3.495,-7.494 -6.292,-10.796c-2.801,-3.411 -6.539,-6.156 -11.217,-8.251c-4.681,-2.092 -9.771,-3.136 -15.266,-3.136c-5.209,0 -10.185,1.018 -14.907,3.064c-4.725,2.048 -8.633,4.814 -11.718,8.321c-2.798,3.303 -4.879,6.885 -6.229,10.725c-1.352,3.839 -2.313,9.689 -2.889,17.517c-0.579,7.83 -0.875,18.37 -0.875,31.6c0,13.242 0.296,23.754 0.875,31.529c0.575,7.785 1.537,13.623 2.889,17.516c1.349,3.894 3.432,7.49 6.229,10.799c6.46,7.494 15.339,11.242 26.625,11.242c11.185,0 20.01,-3.748 26.481,-11.242c2.797,-3.305 4.894,-6.938 6.292,-10.871c1.398,-3.938 2.409,-9.735 3.039,-17.44c0.62,-7.699 0.941,-18.207 0.941,-31.533zm243.125,106.435l-47.897,0l-41.162,-84.892l-29.466,0l0,84.892l-41.241,0l0,-213.026l82.637,0c13.979,0 26.14,2.91 36.465,8.704c10.315,5.801 18.238,13.677 23.736,23.625c5.495,9.941 8.248,20.904 8.248,32.893c0,14.142 -3.584,25.97 -10.754,35.47c-7.157,9.506 -16.455,16.364 -27.878,20.549l47.312,91.785zm-49.932,-147.856c0,-5.46 -1.229,-10.277 -3.687,-14.461c-2.458,-4.188 -5.972,-7.497 -10.543,-9.94c-4.572,-2.44 -9.797,-3.65 -15.667,-3.65l-38.704,0l0,56.253l38.704,0c8.949,0 16.168,-2.577 21.656,-7.742c5.506,-5.168 8.241,-11.986 8.241,-20.46zm219.685,-28.053l-55.135,0l0,175.907l-41.25,0l0,-175.907l-55.139,0l0,-37.117l151.52,0l0.004,37.117zm185.652,175.909l-42.979,0l-12.455,-37.693l-74.964,0l-12.737,37.693l-42.979,0l76.84,-213.033l32.28,0l76.994,213.033zm-66.281,-72.76l-25.91,-77.428l-26.61,77.428l52.52,0zm234.736,72.76l-136.892,0l0,-213.026l41.247,0l0,175.923l95.656,0l0,37.111l-0.01,0l-0.001,-0.008z"/>
   </g>
   <g id="svg_10" fill="#636467">
    <path id="svg_11" d="m1042.936,125.087l-4.03,0l0,12.78l-4.021,0l0,-12.78l-4.031,0l0,-3.58l12.077,0l0.005,3.58zm17.594,12.781l-4.021,0l0,-7.828l-2.321,4.034l-2.567,0l-2.32,-4.034l0,7.828l-4.021,0l0,-16.36l3.945,0l3.671,7.219l3.686,-7.219l3.949,0l0,16.36l-0.001,0z"/>
   </g>
   <g id="svg_12" fill="#636467">
    <path id="svg_13" d="m1127.928,333.379l0.146,-31.838l83.489,-80.928l0.088,-0.07c8.438,-7.012 14.709,-13.324 18.65,-18.768c3.709,-5.122 5.588,-10.416 5.588,-15.745c0,-7.639 -2.438,-13.569 -7.446,-18.134c-5.021,-4.572 -11.794,-6.891 -20.124,-6.891c-8.025,0 -14.612,2.231 -20.128,6.813c-5.35,4.442 -7.95,11.053 -7.95,20.205l0,2.933l-51.959,0l0,-2.933c0,-14.583 3.563,-27.568 10.601,-38.6c7.021,-11.01 16.781,-19.57 29.015,-25.444c12.128,-5.822 25.725,-8.771 40.428,-8.771c11.124,0 21.61,1.62 31.168,4.813c9.617,3.213 18.137,7.934 25.317,14.023c7.233,6.141 12.94,13.701 16.968,22.475c4.033,8.765 6.072,18.466 6.072,28.836c0,8.761 -2.005,17.032 -5.968,24.576c-3.871,7.375 -9.231,14.604 -15.923,21.479c-6.575,6.758 -14.724,14.24 -24.212,22.24l-39.69,33.932l90.466,0l0,45.793l-164.595,0l0,0.004l-0.001,0z"/>
    <path id="svg_14" d="m1208.324,118.147c10.864,0 20.943,1.556 30.24,4.66c9.3,3.107 17.414,7.597 24.348,13.481c6.931,5.879 12.334,13.024 16.197,21.46c3.872,8.428 5.813,17.637 5.813,27.614c0,8.318 -1.88,16.063 -5.635,23.214c-3.755,7.154 -8.895,14.086 -15.425,20.797c-6.522,6.709 -14.523,14.059 -23.997,22.041l-45.748,39.104l95.475,0l0,39.929l-158.717,0l0.125,-27.658l82.526,-79.986c8.666,-7.206 15.048,-13.643 19.148,-19.303c4.1,-5.655 6.151,-11.477 6.151,-17.465c0,-8.436 -2.804,-15.198 -8.401,-20.304c-5.604,-5.098 -12.973,-7.656 -22.103,-7.656c-8.658,0 -15.996,2.497 -22.004,7.492c-6.006,4.992 -9.008,12.478 -9.008,22.459l-46.092,0c0,-14.09 3.382,-26.422 10.142,-37.024c6.755,-10.593 16.028,-18.716 27.812,-24.375c11.781,-5.656 24.838,-8.48 39.153,-8.48m0,-5.867c-15.141,0 -29.171,3.049 -41.694,9.06c-12.733,6.113 -22.897,15.034 -30.218,26.512c-7.342,11.514 -11.059,25.027 -11.059,40.177l0,5.866l57.826,0l0,-5.866c0,-8.225 2.251,-14.095 6.888,-17.947c4.969,-4.129 10.94,-6.139 18.255,-6.139c7.685,0 13.62,2.004 18.151,6.129c4.36,3.975 6.479,9.197 6.479,15.964c0,4.762 -1.646,9.346 -5.035,14.021c-3.796,5.245 -9.902,11.379 -18.146,18.233l-0.174,0.143l-0.16,0.152l-82.525,79.99l-1.771,1.719l-0.012,2.473l-0.126,27.658l-0.028,5.896l170.487,0l0,-51.66l-85.449,0l33.666,-28.775c9.533,-8.033 17.75,-15.592 24.394,-22.412c6.887,-7.08 12.414,-14.539 16.416,-22.165c4.188,-7.968 6.31,-16.694 6.31,-25.941c0,-10.794 -2.136,-20.906 -6.345,-30.064c-4.196,-9.166 -10.168,-17.066 -17.73,-23.482c-7.461,-6.335 -16.313,-11.238 -26.281,-14.568c-9.878,-3.302 -20.675,-4.974 -32.119,-4.974z"/>
   </g>
  </g>
 </g>
</svg>